<svg height="2366" width="720" xmlns="http://www.w3.org/2000/svg">
<rect height="2366" fill="#555" width="720"></rect>
<text fill="#7f7" font-family="Courier New" font-size="12" xml:space="preserve">
<tspan x="10" y="26">14 megabytes installed</tspan>
<tspan x="10" y="42"></tspan>
<tspan x="10" y="58">node_modules</tspan>
<tspan x="10" y="74">└─┬ sqlite3@3.1.8 </tspan>
<tspan x="10" y="90">  ├── nan@2.4.0 </tspan>
<tspan x="10" y="106">  └─┬ node-pre-gyp@0.6.31 </tspan>
<tspan x="10" y="122">    ├─┬ mkdirp@0.5.1 </tspan>
<tspan x="10" y="138">    │ └── minimist@0.0.8 </tspan>
<tspan x="10" y="154">    ├─┬ nopt@3.0.6 </tspan>
<tspan x="10" y="170">    │ └── abbrev@1.0.9 </tspan>
<tspan x="10" y="186">    ├─┬ npmlog@4.0.0 </tspan>
<tspan x="10" y="202">    │ ├─┬ are-we-there-yet@1.1.2 </tspan>
<tspan x="10" y="218">    │ │ ├── delegates@1.0.0 </tspan>
<tspan x="10" y="234">    │ │ └─┬ readable-stream@2.1.5 </tspan>
<tspan x="10" y="250">    │ │   ├── buffer-shims@1.0.0 </tspan>
<tspan x="10" y="266">    │ │   ├── core-util-is@1.0.2 </tspan>
<tspan x="10" y="282">    │ │   ├── inherits@2.0.3 </tspan>
<tspan x="10" y="298">    │ │   ├── isarray@1.0.0 </tspan>
<tspan x="10" y="314">    │ │   ├── process-nextick-args@1.0.7 </tspan>
<tspan x="10" y="330">    │ │   ├── string_decoder@0.10.31 </tspan>
<tspan x="10" y="346">    │ │   └── util-deprecate@1.0.2 </tspan>
<tspan x="10" y="362">    │ ├── console-control-strings@1.1.0 </tspan>
<tspan x="10" y="378">    │ ├─┬ gauge@2.6.0 </tspan>
<tspan x="10" y="394">    │ │ ├── aproba@1.0.4 </tspan>
<tspan x="10" y="410">    │ │ ├── has-color@0.1.7 </tspan>
<tspan x="10" y="426">    │ │ ├── has-unicode@2.0.1 </tspan>
<tspan x="10" y="442">    │ │ ├── object-assign@4.1.0 </tspan>
<tspan x="10" y="458">    │ │ ├── signal-exit@3.0.1 </tspan>
<tspan x="10" y="474">    │ │ ├─┬ string-width@1.0.2 </tspan>
<tspan x="10" y="490">    │ │ │ ├─┬ code-point-at@1.0.1 </tspan>
<tspan x="10" y="506">    │ │ │ │ └── number-is-nan@1.0.1 </tspan>
<tspan x="10" y="522">    │ │ │ └─┬ is-fullwidth-code-point@1.0.0 </tspan>
<tspan x="10" y="538">    │ │ │   └── number-is-nan@1.0.1 </tspan>
<tspan x="10" y="554">    │ │ ├─┬ strip-ansi@3.0.1 </tspan>
<tspan x="10" y="570">    │ │ │ └── ansi-regex@2.0.0 </tspan>
<tspan x="10" y="586">    │ │ └── wide-align@1.1.0 </tspan>
<tspan x="10" y="602">    │ └── set-blocking@2.0.0 </tspan>
<tspan x="10" y="618">    ├─┬ rc@1.1.6 </tspan>
<tspan x="10" y="634">    │ ├── deep-extend@0.4.1 </tspan>
<tspan x="10" y="650">    │ ├── ini@1.3.4 </tspan>
<tspan x="10" y="666">    │ ├── minimist@1.2.0 </tspan>
<tspan x="10" y="682">    │ └── strip-json-comments@1.0.4 </tspan>
<tspan x="10" y="698">    ├─┬ request@2.76.0 </tspan>
<tspan x="10" y="714">    │ ├── aws-sign2@0.6.0 </tspan>
<tspan x="10" y="730">    │ ├── aws4@1.5.0 </tspan>
<tspan x="10" y="746">    │ ├── caseless@0.11.0 </tspan>
<tspan x="10" y="762">    │ ├─┬ combined-stream@1.0.5 </tspan>
<tspan x="10" y="778">    │ │ └── delayed-stream@1.0.0 </tspan>
<tspan x="10" y="794">    │ ├── extend@3.0.0 </tspan>
<tspan x="10" y="810">    │ ├── forever-agent@0.6.1 </tspan>
<tspan x="10" y="826">    │ ├─┬ form-data@2.1.1 </tspan>
<tspan x="10" y="842">    │ │ └── asynckit@0.4.0 </tspan>
<tspan x="10" y="858">    │ ├─┬ har-validator@2.0.6 </tspan>
<tspan x="10" y="874">    │ │ ├─┬ chalk@1.1.3 </tspan>
<tspan x="10" y="890">    │ │ │ ├── ansi-styles@2.2.1 </tspan>
<tspan x="10" y="906">    │ │ │ ├── escape-string-regexp@1.0.5 </tspan>
<tspan x="10" y="922">    │ │ │ ├─┬ has-ansi@2.0.0 </tspan>
<tspan x="10" y="938">    │ │ │ │ └── ansi-regex@2.0.0 </tspan>
<tspan x="10" y="954">    │ │ │ ├─┬ strip-ansi@3.0.1 </tspan>
<tspan x="10" y="970">    │ │ │ │ └── ansi-regex@2.0.0 </tspan>
<tspan x="10" y="986">    │ │ │ └── supports-color@2.0.0 </tspan>
<tspan x="10" y="1002">    │ │ ├─┬ commander@2.9.0 </tspan>
<tspan x="10" y="1018">    │ │ │ └── graceful-readlink@1.0.1 </tspan>
<tspan x="10" y="1034">    │ │ ├─┬ is-my-json-valid@2.15.0 </tspan>
<tspan x="10" y="1050">    │ │ │ ├── generate-function@2.0.0 </tspan>
<tspan x="10" y="1066">    │ │ │ ├─┬ generate-object-property@1.2.0 </tspan>
<tspan x="10" y="1082">    │ │ │ │ └── is-property@1.0.2 </tspan>
<tspan x="10" y="1098">    │ │ │ ├── jsonpointer@4.0.0 </tspan>
<tspan x="10" y="1114">    │ │ │ └── xtend@4.0.1 </tspan>
<tspan x="10" y="1130">    │ │ └─┬ pinkie-promise@2.0.1 </tspan>
<tspan x="10" y="1146">    │ │   └── pinkie@2.0.4 </tspan>
<tspan x="10" y="1162">    │ ├─┬ hawk@3.1.3 </tspan>
<tspan x="10" y="1178">    │ │ ├── boom@2.10.1 </tspan>
<tspan x="10" y="1194">    │ │ ├── cryptiles@2.0.5 </tspan>
<tspan x="10" y="1210">    │ │ ├── hoek@2.16.3 </tspan>
<tspan x="10" y="1226">    │ │ └── sntp@1.0.9 </tspan>
<tspan x="10" y="1242">    │ ├─┬ http-signature@1.1.1 </tspan>
<tspan x="10" y="1258">    │ │ ├── assert-plus@0.2.0 </tspan>
<tspan x="10" y="1274">    │ │ ├─┬ jsprim@1.3.1 </tspan>
<tspan x="10" y="1290">    │ │ │ ├── extsprintf@1.0.2 </tspan>
<tspan x="10" y="1306">    │ │ │ ├── json-schema@0.2.3 </tspan>
<tspan x="10" y="1322">    │ │ │ └── verror@1.3.6 </tspan>
<tspan x="10" y="1338">    │ │ └─┬ sshpk@1.10.1 </tspan>
<tspan x="10" y="1354">    │ │   ├── asn1@0.2.3 </tspan>
<tspan x="10" y="1370">    │ │   ├── assert-plus@1.0.0 </tspan>
<tspan x="10" y="1386">    │ │   ├── bcrypt-pbkdf@1.0.0 </tspan>
<tspan x="10" y="1402">    │ │   ├── dashdash@1.14.0 </tspan>
<tspan x="10" y="1418">    │ │   ├── ecc-jsbn@0.1.1 </tspan>
<tspan x="10" y="1434">    │ │   ├── getpass@0.1.6 </tspan>
<tspan x="10" y="1450">    │ │   ├── jodid25519@1.0.2 </tspan>
<tspan x="10" y="1466">    │ │   ├── jsbn@0.1.0 </tspan>
<tspan x="10" y="1482">    │ │   └── tweetnacl@0.14.3 </tspan>
<tspan x="10" y="1498">    │ ├── is-typedarray@1.0.0 </tspan>
<tspan x="10" y="1514">    │ ├── isstream@0.1.2 </tspan>
<tspan x="10" y="1530">    │ ├── json-stringify-safe@5.0.1 </tspan>
<tspan x="10" y="1546">    │ ├─┬ mime-types@2.1.12 </tspan>
<tspan x="10" y="1562">    │ │ └── mime-db@1.24.0 </tspan>
<tspan x="10" y="1578">    │ ├── node-uuid@1.4.7 </tspan>
<tspan x="10" y="1594">    │ ├── oauth-sign@0.8.2 </tspan>
<tspan x="10" y="1610">    │ ├── qs@6.3.0 </tspan>
<tspan x="10" y="1626">    │ ├── stringstream@0.0.5 </tspan>
<tspan x="10" y="1642">    │ ├─┬ tough-cookie@2.3.2 </tspan>
<tspan x="10" y="1658">    │ │ └── punycode@1.4.1 </tspan>
<tspan x="10" y="1674">    │ └── tunnel-agent@0.4.3 </tspan>
<tspan x="10" y="1690">    ├─┬ rimraf@2.5.4 </tspan>
<tspan x="10" y="1706">    │ └─┬ glob@7.1.1 </tspan>
<tspan x="10" y="1722">    │   ├── fs.realpath@1.0.0 </tspan>
<tspan x="10" y="1738">    │   ├─┬ inflight@1.0.6 </tspan>
<tspan x="10" y="1754">    │   │ └── wrappy@1.0.2 </tspan>
<tspan x="10" y="1770">    │   ├── inherits@2.0.3 </tspan>
<tspan x="10" y="1786">    │   ├─┬ minimatch@3.0.3 </tspan>
<tspan x="10" y="1802">    │   │ └─┬ brace-expansion@1.1.6 </tspan>
<tspan x="10" y="1818">    │   │   ├── balanced-match@0.4.2 </tspan>
<tspan x="10" y="1834">    │   │   └── concat-map@0.0.1 </tspan>
<tspan x="10" y="1850">    │   ├─┬ once@1.4.0 </tspan>
<tspan x="10" y="1866">    │   │ └── wrappy@1.0.2 </tspan>
<tspan x="10" y="1882">    │   └── path-is-absolute@1.0.1 </tspan>
<tspan x="10" y="1898">    ├── semver@5.3.0 </tspan>
<tspan x="10" y="1914">    ├─┬ tar@2.2.1 </tspan>
<tspan x="10" y="1930">    │ ├── block-stream@0.0.9 </tspan>
<tspan x="10" y="1946">    │ ├─┬ fstream@1.0.10 </tspan>
<tspan x="10" y="1962">    │ │ └── graceful-fs@4.1.9 </tspan>
<tspan x="10" y="1978">    │ └── inherits@2.0.3 </tspan>
<tspan x="10" y="1994">    └─┬ tar-pack@3.3.0 </tspan>
<tspan x="10" y="2010">      ├─┬ debug@2.2.0 </tspan>
<tspan x="10" y="2026">      │ └── ms@0.7.1 </tspan>
<tspan x="10" y="2042">      ├─┬ fstream@1.0.10 </tspan>
<tspan x="10" y="2058">      │ ├── graceful-fs@4.1.9 </tspan>
<tspan x="10" y="2074">      │ └── inherits@2.0.3 </tspan>
<tspan x="10" y="2090">      ├─┬ fstream-ignore@1.0.5 </tspan>
<tspan x="10" y="2106">      │ ├── inherits@2.0.3 </tspan>
<tspan x="10" y="2122">      │ └─┬ minimatch@3.0.3 </tspan>
<tspan x="10" y="2138">      │   └─┬ brace-expansion@1.1.6 </tspan>
<tspan x="10" y="2154">      │     ├── balanced-match@0.4.2 </tspan>
<tspan x="10" y="2170">      │     └── concat-map@0.0.1 </tspan>
<tspan x="10" y="2186">      ├─┬ once@1.3.3 </tspan>
<tspan x="10" y="2202">      │ └── wrappy@1.0.2 </tspan>
<tspan x="10" y="2218">      ├─┬ readable-stream@2.1.5 </tspan>
<tspan x="10" y="2234">      │ ├── buffer-shims@1.0.0 </tspan>
<tspan x="10" y="2250">      │ ├── core-util-is@1.0.2 </tspan>
<tspan x="10" y="2266">      │ ├── inherits@2.0.3 </tspan>
<tspan x="10" y="2282">      │ ├── isarray@1.0.0 </tspan>
<tspan x="10" y="2298">      │ ├── process-nextick-args@1.0.7 </tspan>
<tspan x="10" y="2314">      │ ├── string_decoder@0.10.31 </tspan>
<tspan x="10" y="2330">      │ └── util-deprecate@1.0.2 </tspan>
<tspan x="10" y="2346">      └── uid-number@0.0.6</tspan>
</text>
</svg>
